<mxfile host="app.diagrams.net" modified="2024-05-20T01:54:57.162Z" agent="Mozilla/5.0 (Windows NT 10.0; Win64; x64) AppleWebKit/537.36 (KHTML, like Gecko) Chrome/125.0.0.0 Safari/537.36 Edg/125.0.0.0" etag="EO9-Q_BiMaA-AKwZGce6" version="24.4.4" type="github">
  <diagram id="R2lEEEUBdFMjLlhIrx00" name="Page-1">
    <mxGraphModel dx="1055" dy="599" grid="1" gridSize="10" guides="1" tooltips="1" connect="1" arrows="1" fold="1" page="1" pageScale="1" pageWidth="850" pageHeight="1100" math="0" shadow="0" extFonts="Permanent Marker^https://fonts.googleapis.com/css?family=Permanent+Marker">
      <root>
        <mxCell id="0" />
        <mxCell id="1" parent="0" />
        <mxCell id="WubO6YfMAiuugXHex2BC-1" value="学生" style="whiteSpace=wrap;html=1;align=center;" vertex="1" parent="1">
          <mxGeometry x="170" y="400" width="100" height="40" as="geometry" />
        </mxCell>
        <mxCell id="WubO6YfMAiuugXHex2BC-2" value="课程" style="whiteSpace=wrap;html=1;align=center;" vertex="1" parent="1">
          <mxGeometry x="170" y="620" width="100" height="40" as="geometry" />
        </mxCell>
        <mxCell id="WubO6YfMAiuugXHex2BC-3" value="课程类型" style="whiteSpace=wrap;html=1;align=center;" vertex="1" parent="1">
          <mxGeometry x="170" y="820" width="100" height="40" as="geometry" />
        </mxCell>
        <mxCell id="WubO6YfMAiuugXHex2BC-5" value="教师" style="whiteSpace=wrap;html=1;align=center;" vertex="1" parent="1">
          <mxGeometry x="630" y="400" width="100" height="40" as="geometry" />
        </mxCell>
        <mxCell id="WubO6YfMAiuugXHex2BC-6" value="学习" style="shape=rhombus;perimeter=rhombusPerimeter;whiteSpace=wrap;html=1;align=center;direction=west;" vertex="1" parent="1">
          <mxGeometry x="160" y="510" width="120" height="60" as="geometry" />
        </mxCell>
        <mxCell id="WubO6YfMAiuugXHex2BC-16" value="成绩" style="ellipse;whiteSpace=wrap;html=1;align=center;" vertex="1" parent="1">
          <mxGeometry x="330" y="520" width="100" height="40" as="geometry" />
        </mxCell>
        <mxCell id="WubO6YfMAiuugXHex2BC-17" value="课程名" style="ellipse;whiteSpace=wrap;html=1;align=center;" vertex="1" parent="1">
          <mxGeometry y="570" width="100" height="40" as="geometry" />
        </mxCell>
        <mxCell id="WubO6YfMAiuugXHex2BC-18" value="籍贯" style="ellipse;whiteSpace=wrap;html=1;align=center;" vertex="1" parent="1">
          <mxGeometry x="330" y="350" width="100" height="40" as="geometry" />
        </mxCell>
        <mxCell id="WubO6YfMAiuugXHex2BC-19" value="生日" style="ellipse;whiteSpace=wrap;html=1;align=center;" vertex="1" parent="1">
          <mxGeometry x="280" y="290" width="100" height="40" as="geometry" />
        </mxCell>
        <mxCell id="WubO6YfMAiuugXHex2BC-20" value="性别" style="ellipse;whiteSpace=wrap;html=1;align=center;" vertex="1" parent="1">
          <mxGeometry x="170" y="250" width="100" height="40" as="geometry" />
        </mxCell>
        <mxCell id="WubO6YfMAiuugXHex2BC-21" value="姓名" style="ellipse;whiteSpace=wrap;html=1;align=center;" vertex="1" parent="1">
          <mxGeometry x="70" y="290" width="100" height="40" as="geometry" />
        </mxCell>
        <mxCell id="WubO6YfMAiuugXHex2BC-22" value="学号" style="ellipse;whiteSpace=wrap;html=1;align=center;" vertex="1" parent="1">
          <mxGeometry x="10" y="350" width="100" height="40" as="geometry" />
        </mxCell>
        <mxCell id="WubO6YfMAiuugXHex2BC-23" value="教师编号" style="ellipse;whiteSpace=wrap;html=1;align=center;" vertex="1" parent="1">
          <mxGeometry x="440" y="350" width="100" height="40" as="geometry" />
        </mxCell>
        <mxCell id="WubO6YfMAiuugXHex2BC-24" value="教材名" style="ellipse;whiteSpace=wrap;html=1;align=center;" vertex="1" parent="1">
          <mxGeometry y="720" width="100" height="40" as="geometry" />
        </mxCell>
        <mxCell id="WubO6YfMAiuugXHex2BC-25" value="学分" style="ellipse;whiteSpace=wrap;html=1;align=center;" vertex="1" parent="1">
          <mxGeometry y="670" width="100" height="40" as="geometry" />
        </mxCell>
        <mxCell id="WubO6YfMAiuugXHex2BC-26" value="学时" style="ellipse;whiteSpace=wrap;html=1;align=center;" vertex="1" parent="1">
          <mxGeometry y="620" width="100" height="40" as="geometry" />
        </mxCell>
        <mxCell id="WubO6YfMAiuugXHex2BC-27" value="课程编号" style="ellipse;whiteSpace=wrap;html=1;align=center;" vertex="1" parent="1">
          <mxGeometry y="520" width="100" height="40" as="geometry" />
        </mxCell>
        <mxCell id="WubO6YfMAiuugXHex2BC-28" value="工作时间" style="ellipse;whiteSpace=wrap;html=1;align=center;" vertex="1" parent="1">
          <mxGeometry x="820" y="350" width="100" height="40" as="geometry" />
        </mxCell>
        <mxCell id="WubO6YfMAiuugXHex2BC-29" value="学历" style="ellipse;whiteSpace=wrap;html=1;align=center;" vertex="1" parent="1">
          <mxGeometry x="760" y="320" width="100" height="40" as="geometry" />
        </mxCell>
        <mxCell id="WubO6YfMAiuugXHex2BC-30" value="职称" style="ellipse;whiteSpace=wrap;html=1;align=center;" vertex="1" parent="1">
          <mxGeometry x="700" y="290" width="100" height="40" as="geometry" />
        </mxCell>
        <mxCell id="WubO6YfMAiuugXHex2BC-31" value="姓名" style="ellipse;whiteSpace=wrap;html=1;align=center;" vertex="1" parent="1">
          <mxGeometry x="500" y="320" width="100" height="40" as="geometry" />
        </mxCell>
        <mxCell id="WubO6YfMAiuugXHex2BC-32" value="性别" style="ellipse;whiteSpace=wrap;html=1;align=center;" vertex="1" parent="1">
          <mxGeometry x="560" y="290" width="100" height="40" as="geometry" />
        </mxCell>
        <mxCell id="WubO6YfMAiuugXHex2BC-34" value="生日" style="ellipse;whiteSpace=wrap;html=1;align=center;" vertex="1" parent="1">
          <mxGeometry x="630" y="260" width="100" height="40" as="geometry" />
        </mxCell>
        <mxCell id="WubO6YfMAiuugXHex2BC-35" value="教授" style="shape=rhombus;perimeter=rhombusPerimeter;whiteSpace=wrap;html=1;align=center;" vertex="1" parent="1">
          <mxGeometry x="620" y="510" width="120" height="60" as="geometry" />
        </mxCell>
        <mxCell id="WubO6YfMAiuugXHex2BC-36" value="效果" style="ellipse;whiteSpace=wrap;html=1;align=center;" vertex="1" parent="1">
          <mxGeometry x="820" y="520" width="100" height="40" as="geometry" />
        </mxCell>
        <mxCell id="WubO6YfMAiuugXHex2BC-37" value="属于" style="shape=rhombus;perimeter=rhombusPerimeter;whiteSpace=wrap;html=1;align=center;" vertex="1" parent="1">
          <mxGeometry x="160" y="710" width="120" height="60" as="geometry" />
        </mxCell>
        <mxCell id="WubO6YfMAiuugXHex2BC-38" value="类型编号" style="ellipse;whiteSpace=wrap;html=1;align=center;" vertex="1" parent="1">
          <mxGeometry x="330" y="860" width="100" height="40" as="geometry" />
        </mxCell>
        <mxCell id="WubO6YfMAiuugXHex2BC-39" value="类别名" style="ellipse;whiteSpace=wrap;html=1;align=center;" vertex="1" parent="1">
          <mxGeometry x="330" y="790" width="100" height="40" as="geometry" />
        </mxCell>
        <mxCell id="WubO6YfMAiuugXHex2BC-40" value="" style="endArrow=none;html=1;rounded=0;entryX=0.5;entryY=1;entryDx=0;entryDy=0;" edge="1" parent="1" target="WubO6YfMAiuugXHex2BC-35">
          <mxGeometry relative="1" as="geometry">
            <mxPoint x="270" y="639.52" as="sourcePoint" />
            <mxPoint x="430" y="639.52" as="targetPoint" />
            <Array as="points">
              <mxPoint x="350" y="639.52" />
              <mxPoint x="680" y="640" />
            </Array>
          </mxGeometry>
        </mxCell>
        <mxCell id="WubO6YfMAiuugXHex2BC-41" value="M" style="resizable=0;html=1;whiteSpace=wrap;align=left;verticalAlign=bottom;" connectable="0" vertex="1" parent="WubO6YfMAiuugXHex2BC-40">
          <mxGeometry x="-1" relative="1" as="geometry">
            <mxPoint x="10" as="offset" />
          </mxGeometry>
        </mxCell>
        <mxCell id="WubO6YfMAiuugXHex2BC-43" value="" style="endArrow=none;html=1;rounded=0;exitX=0.5;exitY=0;exitDx=0;exitDy=0;" edge="1" parent="1" source="WubO6YfMAiuugXHex2BC-35">
          <mxGeometry relative="1" as="geometry">
            <mxPoint x="550" y="470" as="sourcePoint" />
            <mxPoint x="680" y="440" as="targetPoint" />
            <Array as="points" />
          </mxGeometry>
        </mxCell>
        <mxCell id="WubO6YfMAiuugXHex2BC-44" value="1" style="resizable=0;html=1;whiteSpace=wrap;align=right;verticalAlign=bottom;" connectable="0" vertex="1" parent="WubO6YfMAiuugXHex2BC-43">
          <mxGeometry x="1" relative="1" as="geometry">
            <mxPoint x="20" y="30" as="offset" />
          </mxGeometry>
        </mxCell>
        <mxCell id="WubO6YfMAiuugXHex2BC-45" value="&#xa;&lt;span style=&quot;color: rgba(0, 0, 0, 0); font-family: monospace; font-size: 0px; font-style: normal; font-variant-ligatures: normal; font-variant-caps: normal; font-weight: 400; letter-spacing: normal; orphans: 2; text-align: start; text-indent: 0px; text-transform: none; widows: 2; word-spacing: 0px; -webkit-text-stroke-width: 0px; white-space: nowrap; background-color: rgb(251, 251, 251); text-decoration-thickness: initial; text-decoration-style: initial; text-decoration-color: initial; display: inline !important; float: none;&quot;&gt;%3CmxGraphModel%3E%3Croot%3E%3CmxCell%20id%3D%220%22%2F%3E%3CmxCell%20id%3D%221%22%20parent%3D%220%22%2F%3E%3CmxCell%20id%3D%222%22%20style%3D%22endArrow%3Dnone%3Bhtml%3D1%3Brounded%3D0%3BexitX%3D0.5%3BexitY%3D1%3BexitDx%3D0%3BexitDy%3D0%3BentryX%3D0.5%3BentryY%3D0%3BentryDx%3D0%3BentryDy%3D0%3B%22%20edge%3D%221%22%20parent%3D%221%22%3E%3CmxGeometry%20relative%3D%221%22%22%20as%3D%22geometry%22%3E%3CmxPoint%20x%3D%22490%22%20y%3D%22 390%22%20as%3D%22sourcePoint%22%2F%3E%3CmxPoint%20x%3D%22680%22%20y%3D%22400%22%20as%3D%22targetPoint%22%2F%3E%3C%2FmxGeometry%3E%3C%2FmxCell%3E%3C%2Froot%3E%3C%2FmxGraphModel%3E" style="endArrow=none;html=1;rounded=0;exitX=0.5;exitY=1;exitDx=0;exitDy=0;entryX=0.5;entryY=0;entryDx=0;entryDy=0;" edge="1" parent="1" source="WubO6YfMAiuugXHex2BC-23" target="WubO6YfMAiuugXHex2BC-5">
          <mxGeometry x="-0.663" y="-38" relative="1" as="geometry">
            <mxPoint x="480" y="410" as="sourcePoint" />
            <mxPoint x="640" y="410" as="targetPoint" />
            <mxPoint as="offset" />
          </mxGeometry>
        </mxCell>
        <mxCell id="WubO6YfMAiuugXHex2BC-47" value="" style="endArrow=none;html=1;rounded=0;exitX=0.5;exitY=1;exitDx=0;exitDy=0;entryX=0.5;entryY=0;entryDx=0;entryDy=0;" edge="1" parent="1" source="WubO6YfMAiuugXHex2BC-31" target="WubO6YfMAiuugXHex2BC-5">
          <mxGeometry relative="1" as="geometry">
            <mxPoint x="500" y="400" as="sourcePoint" />
            <mxPoint x="690" y="410" as="targetPoint" />
          </mxGeometry>
        </mxCell>
        <mxCell id="WubO6YfMAiuugXHex2BC-48" value="" style="endArrow=none;html=1;rounded=0;exitX=0.589;exitY=1.062;exitDx=0;exitDy=0;exitPerimeter=0;" edge="1" parent="1" source="WubO6YfMAiuugXHex2BC-32">
          <mxGeometry relative="1" as="geometry">
            <mxPoint x="560" y="370" as="sourcePoint" />
            <mxPoint x="680" y="400" as="targetPoint" />
          </mxGeometry>
        </mxCell>
        <mxCell id="WubO6YfMAiuugXHex2BC-49" value="&#xa;&lt;span style=&quot;color: rgba(0, 0, 0, 0); font-family: monospace; font-size: 0px; font-style: normal; font-variant-ligatures: normal; font-variant-caps: normal; font-weight: 400; letter-spacing: normal; orphans: 2; text-align: start; text-indent: 0px; text-transform: none; widows: 2; word-spacing: 0px; -webkit-text-stroke-width: 0px; white-space: nowrap; background-color: rgb(251, 251, 251); text-decoration-thickness: initial; text-decoration-style: initial; text-decoration-color: initial; display: inline !important; float: none;&quot;&gt;%3CmxGraphModel%3E%3Croot%3E%3CmxCell%20id%3D%220%22%2F%3E%3CmxCell%20id%3D%221%22%20parent%3D%220%22%2F%3E%3CmxCell%20id%3D%222%22%20value%3D%22%22%20style%3D%22endArrow%3Dnone%3Bhtml%3D1%3Brounded%3D0%3BexitX%3D0.5%3BexitY%3D1%3BexitDx%3D0%3BexitDy%3D0%3B%22%20edge%3D%221%22%20parent%3D%221%22%3E%3CmxGeometry%20relative%3D%221%22%22%20as%3D%22geometry%22%3E%3CmxPoint%20x%3D%22680%22%20y%3D%22 300%22%20as%3D%22sourcePoint%22%2F%3E%3CmxPoint%20x%3D%22680%22%20y%3D%22398%22%20as%3D%22targetPoint%22%2F%3E%3C%2FmxGeometry%3E%3C%2FmxCell%3E%3C%2Froot%3E%3C%2FmxGraphModel%3E" style="endArrow=none;html=1;rounded=0;exitX=0.5;exitY=1;exitDx=0;exitDy=0;" edge="1" parent="1">
          <mxGeometry relative="1" as="geometry">
            <mxPoint x="679.52" y="300" as="sourcePoint" />
            <mxPoint x="679.52" y="398" as="targetPoint" />
          </mxGeometry>
        </mxCell>
        <mxCell id="WubO6YfMAiuugXHex2BC-50" value="" style="endArrow=none;html=1;rounded=0;exitX=0.5;exitY=1;exitDx=0;exitDy=0;" edge="1" parent="1" source="WubO6YfMAiuugXHex2BC-30">
          <mxGeometry relative="1" as="geometry">
            <mxPoint x="690" y="310" as="sourcePoint" />
            <mxPoint x="680" y="400" as="targetPoint" />
          </mxGeometry>
        </mxCell>
        <mxCell id="WubO6YfMAiuugXHex2BC-51" value="" style="endArrow=none;html=1;rounded=0;exitX=0.5;exitY=1;exitDx=0;exitDy=0;entryX=0.5;entryY=0;entryDx=0;entryDy=0;" edge="1" parent="1" source="WubO6YfMAiuugXHex2BC-29" target="WubO6YfMAiuugXHex2BC-5">
          <mxGeometry relative="1" as="geometry">
            <mxPoint x="760" y="340" as="sourcePoint" />
            <mxPoint x="690" y="410" as="targetPoint" />
          </mxGeometry>
        </mxCell>
        <mxCell id="WubO6YfMAiuugXHex2BC-52" value="" style="endArrow=none;html=1;rounded=0;exitX=0.5;exitY=1;exitDx=0;exitDy=0;" edge="1" parent="1" source="WubO6YfMAiuugXHex2BC-28">
          <mxGeometry relative="1" as="geometry">
            <mxPoint x="820" y="370" as="sourcePoint" />
            <mxPoint x="680" y="400" as="targetPoint" />
          </mxGeometry>
        </mxCell>
        <mxCell id="WubO6YfMAiuugXHex2BC-56" value="" style="endArrow=none;html=1;rounded=0;exitX=0.5;exitY=1;exitDx=0;exitDy=0;entryX=0.5;entryY=0;entryDx=0;entryDy=0;" edge="1" parent="1" source="WubO6YfMAiuugXHex2BC-22" target="WubO6YfMAiuugXHex2BC-1">
          <mxGeometry relative="1" as="geometry">
            <mxPoint x="110" y="389.05" as="sourcePoint" />
            <mxPoint x="270" y="389.05" as="targetPoint" />
          </mxGeometry>
        </mxCell>
        <mxCell id="WubO6YfMAiuugXHex2BC-57" value="" style="endArrow=none;html=1;rounded=0;exitX=0.5;exitY=1;exitDx=0;exitDy=0;entryX=0.5;entryY=0;entryDx=0;entryDy=0;" edge="1" parent="1" source="WubO6YfMAiuugXHex2BC-21" target="WubO6YfMAiuugXHex2BC-1">
          <mxGeometry relative="1" as="geometry">
            <mxPoint x="70" y="400" as="sourcePoint" />
            <mxPoint x="230" y="410" as="targetPoint" />
          </mxGeometry>
        </mxCell>
        <mxCell id="WubO6YfMAiuugXHex2BC-58" value="" style="endArrow=none;html=1;rounded=0;exitX=0.5;exitY=1;exitDx=0;exitDy=0;entryX=0.5;entryY=0;entryDx=0;entryDy=0;" edge="1" parent="1" source="WubO6YfMAiuugXHex2BC-20" target="WubO6YfMAiuugXHex2BC-1">
          <mxGeometry relative="1" as="geometry">
            <mxPoint x="130" y="340" as="sourcePoint" />
            <mxPoint x="230" y="410" as="targetPoint" />
          </mxGeometry>
        </mxCell>
        <mxCell id="WubO6YfMAiuugXHex2BC-59" value="" style="endArrow=none;html=1;rounded=0;exitX=0.5;exitY=1;exitDx=0;exitDy=0;entryX=0.5;entryY=0;entryDx=0;entryDy=0;" edge="1" parent="1" source="WubO6YfMAiuugXHex2BC-19" target="WubO6YfMAiuugXHex2BC-1">
          <mxGeometry relative="1" as="geometry">
            <mxPoint x="230" y="300" as="sourcePoint" />
            <mxPoint x="230" y="410" as="targetPoint" />
          </mxGeometry>
        </mxCell>
        <mxCell id="WubO6YfMAiuugXHex2BC-60" value="" style="endArrow=none;html=1;rounded=0;exitX=0.5;exitY=1;exitDx=0;exitDy=0;" edge="1" parent="1" source="WubO6YfMAiuugXHex2BC-18">
          <mxGeometry relative="1" as="geometry">
            <mxPoint x="340" y="340" as="sourcePoint" />
            <mxPoint x="220" y="400" as="targetPoint" />
          </mxGeometry>
        </mxCell>
        <mxCell id="WubO6YfMAiuugXHex2BC-61" value="" style="endArrow=none;html=1;rounded=0;entryX=0.5;entryY=1;entryDx=0;entryDy=0;" edge="1" parent="1" target="WubO6YfMAiuugXHex2BC-6">
          <mxGeometry relative="1" as="geometry">
            <mxPoint x="220" y="440" as="sourcePoint" />
            <mxPoint x="330" y="480" as="targetPoint" />
          </mxGeometry>
        </mxCell>
        <mxCell id="WubO6YfMAiuugXHex2BC-62" value="M" style="resizable=0;html=1;whiteSpace=wrap;align=left;verticalAlign=bottom;" connectable="0" vertex="1" parent="WubO6YfMAiuugXHex2BC-61">
          <mxGeometry x="-1" relative="1" as="geometry">
            <mxPoint x="10" y="30" as="offset" />
          </mxGeometry>
        </mxCell>
        <mxCell id="WubO6YfMAiuugXHex2BC-64" value="" style="endArrow=none;html=1;rounded=0;exitX=0.5;exitY=0;exitDx=0;exitDy=0;entryX=0.5;entryY=0;entryDx=0;entryDy=0;" edge="1" parent="1" source="WubO6YfMAiuugXHex2BC-6" target="WubO6YfMAiuugXHex2BC-2">
          <mxGeometry relative="1" as="geometry">
            <mxPoint x="280" y="600" as="sourcePoint" />
            <mxPoint x="440" y="600" as="targetPoint" />
          </mxGeometry>
        </mxCell>
        <mxCell id="WubO6YfMAiuugXHex2BC-65" value="N" style="resizable=0;html=1;whiteSpace=wrap;align=right;verticalAlign=bottom;" connectable="0" vertex="1" parent="WubO6YfMAiuugXHex2BC-64">
          <mxGeometry x="1" relative="1" as="geometry">
            <mxPoint x="20" y="-10" as="offset" />
          </mxGeometry>
        </mxCell>
        <mxCell id="WubO6YfMAiuugXHex2BC-68" value="" style="endArrow=none;html=1;rounded=0;exitX=0.5;exitY=1;exitDx=0;exitDy=0;" edge="1" parent="1" source="WubO6YfMAiuugXHex2BC-2" target="WubO6YfMAiuugXHex2BC-37">
          <mxGeometry relative="1" as="geometry">
            <mxPoint x="350" y="620" as="sourcePoint" />
            <mxPoint x="510" y="620" as="targetPoint" />
          </mxGeometry>
        </mxCell>
        <mxCell id="WubO6YfMAiuugXHex2BC-69" value="M" style="resizable=0;html=1;whiteSpace=wrap;align=left;verticalAlign=bottom;" connectable="0" vertex="1" parent="WubO6YfMAiuugXHex2BC-68">
          <mxGeometry x="-1" relative="1" as="geometry">
            <mxPoint x="10" y="30" as="offset" />
          </mxGeometry>
        </mxCell>
        <mxCell id="WubO6YfMAiuugXHex2BC-71" value="" style="endArrow=none;html=1;rounded=0;exitX=0.5;exitY=1;exitDx=0;exitDy=0;entryX=0.5;entryY=0;entryDx=0;entryDy=0;" edge="1" parent="1" source="WubO6YfMAiuugXHex2BC-37" target="WubO6YfMAiuugXHex2BC-3">
          <mxGeometry relative="1" as="geometry">
            <mxPoint x="350" y="620" as="sourcePoint" />
            <mxPoint x="510" y="620" as="targetPoint" />
          </mxGeometry>
        </mxCell>
        <mxCell id="WubO6YfMAiuugXHex2BC-72" value="1" style="resizable=0;html=1;whiteSpace=wrap;align=right;verticalAlign=bottom;" connectable="0" vertex="1" parent="WubO6YfMAiuugXHex2BC-71">
          <mxGeometry x="1" relative="1" as="geometry">
            <mxPoint x="20" y="-10" as="offset" />
          </mxGeometry>
        </mxCell>
        <mxCell id="WubO6YfMAiuugXHex2BC-73" value="" style="endArrow=none;html=1;rounded=0;exitX=0;exitY=0.5;exitDx=0;exitDy=0;entryX=0;entryY=0.5;entryDx=0;entryDy=0;" edge="1" parent="1" source="WubO6YfMAiuugXHex2BC-6" target="WubO6YfMAiuugXHex2BC-16">
          <mxGeometry relative="1" as="geometry">
            <mxPoint x="310" y="570" as="sourcePoint" />
            <mxPoint x="470" y="570" as="targetPoint" />
          </mxGeometry>
        </mxCell>
        <mxCell id="WubO6YfMAiuugXHex2BC-74" value="" style="endArrow=none;html=1;rounded=0;exitX=1;exitY=0.5;exitDx=0;exitDy=0;" edge="1" parent="1" source="WubO6YfMAiuugXHex2BC-35" target="WubO6YfMAiuugXHex2BC-36">
          <mxGeometry relative="1" as="geometry">
            <mxPoint x="350" y="620" as="sourcePoint" />
            <mxPoint x="510" y="620" as="targetPoint" />
          </mxGeometry>
        </mxCell>
        <mxCell id="WubO6YfMAiuugXHex2BC-75" value="" style="endArrow=none;html=1;rounded=0;exitX=1;exitY=0.5;exitDx=0;exitDy=0;entryX=0;entryY=0.5;entryDx=0;entryDy=0;" edge="1" parent="1" source="WubO6YfMAiuugXHex2BC-27" target="WubO6YfMAiuugXHex2BC-2">
          <mxGeometry relative="1" as="geometry">
            <mxPoint x="130" y="589.52" as="sourcePoint" />
            <mxPoint x="290" y="589.52" as="targetPoint" />
          </mxGeometry>
        </mxCell>
        <mxCell id="WubO6YfMAiuugXHex2BC-76" value="" style="endArrow=none;html=1;rounded=0;exitX=1;exitY=0.5;exitDx=0;exitDy=0;entryX=0;entryY=0.5;entryDx=0;entryDy=0;" edge="1" parent="1" source="WubO6YfMAiuugXHex2BC-17" target="WubO6YfMAiuugXHex2BC-2">
          <mxGeometry relative="1" as="geometry">
            <mxPoint x="110" y="550" as="sourcePoint" />
            <mxPoint x="180" y="650" as="targetPoint" />
          </mxGeometry>
        </mxCell>
        <mxCell id="WubO6YfMAiuugXHex2BC-77" value="" style="endArrow=none;html=1;rounded=0;exitX=1;exitY=0.5;exitDx=0;exitDy=0;entryX=0;entryY=0.5;entryDx=0;entryDy=0;" edge="1" parent="1" source="WubO6YfMAiuugXHex2BC-26" target="WubO6YfMAiuugXHex2BC-2">
          <mxGeometry relative="1" as="geometry">
            <mxPoint x="110" y="600" as="sourcePoint" />
            <mxPoint x="180" y="650" as="targetPoint" />
          </mxGeometry>
        </mxCell>
        <mxCell id="WubO6YfMAiuugXHex2BC-78" value="" style="endArrow=none;html=1;rounded=0;exitX=1;exitY=0.5;exitDx=0;exitDy=0;entryX=0;entryY=0.5;entryDx=0;entryDy=0;" edge="1" parent="1" source="WubO6YfMAiuugXHex2BC-25" target="WubO6YfMAiuugXHex2BC-2">
          <mxGeometry relative="1" as="geometry">
            <mxPoint x="110" y="650" as="sourcePoint" />
            <mxPoint x="180" y="650" as="targetPoint" />
          </mxGeometry>
        </mxCell>
        <mxCell id="WubO6YfMAiuugXHex2BC-79" value="" style="endArrow=none;html=1;rounded=0;exitX=1.008;exitY=0.293;exitDx=0;exitDy=0;exitPerimeter=0;entryX=0;entryY=0.5;entryDx=0;entryDy=0;" edge="1" parent="1" source="WubO6YfMAiuugXHex2BC-24" target="WubO6YfMAiuugXHex2BC-2">
          <mxGeometry relative="1" as="geometry">
            <mxPoint x="110" y="700" as="sourcePoint" />
            <mxPoint x="160" y="640" as="targetPoint" />
          </mxGeometry>
        </mxCell>
        <mxCell id="WubO6YfMAiuugXHex2BC-80" value="" style="endArrow=none;html=1;rounded=0;exitX=0;exitY=0.5;exitDx=0;exitDy=0;entryX=1;entryY=0.5;entryDx=0;entryDy=0;" edge="1" parent="1" source="WubO6YfMAiuugXHex2BC-39" target="WubO6YfMAiuugXHex2BC-3">
          <mxGeometry relative="1" as="geometry">
            <mxPoint x="111" y="742" as="sourcePoint" />
            <mxPoint x="180" y="650" as="targetPoint" />
          </mxGeometry>
        </mxCell>
        <mxCell id="WubO6YfMAiuugXHex2BC-81" value="" style="endArrow=none;html=1;rounded=0;exitX=0;exitY=0.5;exitDx=0;exitDy=0;entryX=1;entryY=0.5;entryDx=0;entryDy=0;" edge="1" parent="1" source="WubO6YfMAiuugXHex2BC-38" target="WubO6YfMAiuugXHex2BC-3">
          <mxGeometry relative="1" as="geometry">
            <mxPoint x="340" y="820" as="sourcePoint" />
            <mxPoint x="280" y="850" as="targetPoint" />
          </mxGeometry>
        </mxCell>
      </root>
    </mxGraphModel>
  </diagram>
</mxfile>
